HIERARCHY
ROOT Hips
{
	OFFSET 0.000000 0.000000 0.000000
	CHANNELS 6 Xposition Yposition Zposition Zrotation Yrotation Xrotation 
	JOINT LHipJoint
	{
		OFFSET 0.000000 0.000000 0.000000
		CHANNELS 3 Zrotation Yrotation Xrotation
		JOINT LeftUpLeg
		{
			OFFSET 1.363060 -1.794630 0.839290
			CHANNELS 3 Zrotation Yrotation Xrotation
			JOINT LeftLeg
			{
				OFFSET 2.448110 -6.726130 0.000000
				CHANNELS 3 Zrotation Yrotation Xrotation
				JOINT LeftFoot
				{
					OFFSET 2.562200 -7.039590 0.000000
					CHANNELS 3 Zrotation Yrotation Xrotation
					JOINT LeftToeBase
					{
						OFFSET 0.157640 -0.433110 2.322550
						CHANNELS 3 Zrotation Yrotation Xrotation
						End Site
						{
							OFFSET 0.000000 0.000000 0.000000
						}
					}
				}
			}
		}
	}
	JOINT RHipJoint
	{
		OFFSET 0.000000 0.000000 0.000000
		CHANNELS 3 Zrotation Yrotation Xrotation
		JOINT RightUpLeg
		{
			OFFSET -1.305520 -1.794630 0.839290
			CHANNELS 3 Zrotation Yrotation Xrotation
			JOINT RightLeg
			{
				OFFSET -2.542530 -6.985550 0.000000
				CHANNELS 3 Zrotation Yrotation Xrotation
				JOINT RightFoot
				{
					OFFSET -2.568260 -7.056230 0.000000
					CHANNELS 3 Zrotation Yrotation Xrotation
					JOINT RightToeBase
					{
						OFFSET -0.164730 -0.452590 2.363150
						CHANNELS 3 Zrotation Yrotation Xrotation
						End Site
						{
							OFFSET 0.000000 0.000000 0.000000
						}
					}
				}
			}
		}
	}
	JOINT LowerBack
	{
		OFFSET 0.000000 0.000000 0.000000
		CHANNELS 3 Zrotation Yrotation Xrotation
		JOINT Spine
		{
			OFFSET 0.028270 2.035590 -0.193380
			CHANNELS 3 Zrotation Yrotation Xrotation
			JOINT Spine1
			{
				OFFSET 0.056720 2.048850 -0.042750
				CHANNELS 3 Zrotation Yrotation Xrotation
				JOINT Neck
				{
					OFFSET 0.000000 0.000000 0.000000
					CHANNELS 3 Zrotation Yrotation Xrotation
					JOINT Neck1
					{
						OFFSET -0.054170 1.746240 0.172020
						CHANNELS 3 Zrotation Yrotation Xrotation
						JOINT Head
						{
							OFFSET 0.104070 1.761360 -0.123970
							CHANNELS 3 Zrotation Yrotation Xrotation
							End Site
							{
								OFFSET 0.000000 0.000000 0.000000
							}
						}
					}
				}
				JOINT LeftShoulder
				{
					OFFSET 0.000000 0.000000 0.000000
					CHANNELS 3 Zrotation Yrotation Xrotation
					JOINT LeftArm
					{
						OFFSET 3.362410 1.200890 -0.311210
						CHANNELS 3 Zrotation Yrotation Xrotation
						JOINT LeftForeArm
						{
							OFFSET 4.983000 -0.000000 -0.000000
							CHANNELS 3 Zrotation Yrotation Xrotation
							JOINT LeftHand
							{
								OFFSET 3.483560 -0.000000 -0.000000
								CHANNELS 3 Zrotation Yrotation Xrotation
								JOINT LeftFingerBase
								{
									OFFSET 0.000000 0.000000 0.000000
									CHANNELS 3 Zrotation Yrotation Xrotation
									JOINT LeftHandIndex1
									{
										OFFSET 0.715260 -0.000000 -0.000000
										CHANNELS 3 Zrotation Yrotation Xrotation
										End Site
										{
											OFFSET 0.000000 0.000000 0.000000
										}
									}
								}
								JOINT LThumb
								{
									OFFSET 0.000000 0.000000 0.000000
									CHANNELS 3 Zrotation Yrotation Xrotation
									End Site
									{
										OFFSET 0.000000 0.000000 0.000000
									}
								}
							}
						}
					}
				}
				JOINT RightShoulder
				{
					OFFSET 0.000000 0.000000 0.000000
					CHANNELS 3 Zrotation Yrotation Xrotation
					JOINT RightArm
					{
						OFFSET -3.136600 1.374050 -0.404650
						CHANNELS 3 Zrotation Yrotation Xrotation
						JOINT RightForeArm
						{
							OFFSET -5.241900 -0.000000 -0.000000
							CHANNELS 3 Zrotation Yrotation Xrotation
							JOINT RightHand
							{
								OFFSET -3.444170 -0.000000 -0.000000
								CHANNELS 3 Zrotation Yrotation Xrotation
								JOINT RightFingerBase
								{
									OFFSET 0.000000 0.000000 0.000000
									CHANNELS 3 Zrotation Yrotation Xrotation
									JOINT RightHandIndex1
									{
										OFFSET -0.622530 -0.000000 -0.000000
										CHANNELS 3 Zrotation Yrotation Xrotation
										End Site
										{
											OFFSET 0.000000 0.000000 0.000000
										}
									}
								}
								JOINT RThumb
								{
									OFFSET 0.000000 0.000000 0.000000
									CHANNELS 3 Zrotation Yrotation Xrotation
									End Site
									{
										OFFSET 0.000000 0.000000 0.000000
									}
								}
							}
						}
					}
				}
			}
		}
	}
}
MOTION
Frames: 8
Frame Time: 0.008333
9.418930 18.045535 -15.379208 -5.187229 8.887026 1.943954 -2.392148 -4.450398 -2.675401 -4.231175 2.089896 -24.584670 6.404447 15.929630 48.659288 0.706274 -2.253457 8.142005 1.111200 6.697200 18.821200 -0.459485 3.068111 -3.583151 28.608743 0.865077 8.104829 0.745830 -3.282442 5.463992 0.300369 -9.032567 -17.092258 -0.087900 -1.912100 5.262700 7.200129 3.209202 4.510958 1.172547 3.993996 -4.566057 -4.897969 2.372068 1.250216 -3.765500 -3.599472 -3.834020 5.712952 -5.248798 9.156427 1.825500 -2.452500 1.152200 -0.609501 -8.516326 2.316247 -80.675888 5.609617 36.260435 11.234661 -15.791137 -1.652818 0.408766 0.376386 -8.425523 13.096817 -10.052023 -2.316200 -7.125000 0.000000 0.000000 -10.187700 19.421400 6.320500 0.541638 9.052488 2.860515 80.468406 -5.757365 28.329525 -18.189159 22.869300 -5.465990 1.500352 2.185414 3.739149 3.607459 -44.364560 -1.680500 7.125000 0.000000 0.000000 58.897800 -67.898300 -37.034700 
9.432780 18.034774 -15.231842 -5.238144 8.601200 2.023365 -2.456328 -4.487810 -2.695362 -4.147514 2.033732 -24.895440 5.750184 15.358895 46.284246 0.759419 -2.374813 8.260569 1.059500 6.544400 18.372600 -0.422873 3.077218 -3.580543 28.731531 0.810346 8.627996 0.748184 -3.241665 5.362242 0.254123 -8.781598 -17.345463 -0.079200 -1.814900 4.994400 7.327236 3.335257 4.503841 1.110246 4.150199 -4.573668 -5.062087 2.450337 1.267782 -3.778020 -3.561509 -3.834495 5.621283 -5.185224 9.157241 1.803200 -2.421900 1.146200 -0.616139 -8.511474 2.317876 -80.667574 5.983510 35.542273 11.309014 -15.886761 -1.673392 0.400373 0.380799 -8.988577 13.244963 -10.014984 -2.337100 -7.125000 0.000000 0.000000 -10.081300 19.449500 6.245900 0.526364 9.050846 2.870053 80.178316 -5.390811 28.345035 -18.492389 23.200523 -5.581168 1.491675 2.180160 3.359959 3.291815 -44.222521 -1.441200 7.125000 0.000000 0.000000 58.293700 -67.914100 -36.577300 
9.447626 18.022020 -15.084377 -5.286520 8.321951 2.131508 -2.528161 -4.525686 -2.715587 -4.055074 1.940552 -25.147098 5.083365 14.733280 43.782292 0.789230 -2.307041 8.355775 0.999100 6.360900 17.835300 -0.383332 3.086368 -3.575812 28.819947 0.740068 9.089897 0.747532 -3.214357 5.296698 0.200809 -8.478366 -17.587859 -0.072200 -1.733800 4.770500 7.451539 3.459271 4.470857 1.047042 4.300876 -4.585923 -5.225902 2.525642 1.290489 -3.808250 -3.518783 -3.879431 5.558269 -5.119423 9.195785 1.791200 -2.389000 1.161600 -0.622111 -8.507911 2.318666 -80.666177 6.341817 34.882354 11.376054 -15.971737 -1.690843 0.390065 0.383939 -9.480905 13.374198 -9.902720 -2.337700 -7.125000 0.000000 0.000000 -9.989100 19.554800 6.163100 0.510595 9.047325 2.878539 79.904381 -5.030608 28.326832 -18.805575 23.543750 -5.707772 1.481720 2.178208 3.009943 3.033479 -44.181324 -1.249200 7.125000 0.000000 0.000000 57.957600 -67.967000 -36.375600 
9.463369 18.007274 -14.936215 -5.326588 8.047946 2.259375 -2.607754 -4.562998 -2.734602 -3.953295 1.816534 -25.328393 4.410619 14.050617 41.160399 0.795388 -2.059705 8.470511 0.952900 6.216200 17.413000 -0.340953 3.096138 -3.570095 28.872985 0.660037 9.511360 0.744391 -3.199785 5.266108 0.141644 -8.132553 -17.823564 -0.066500 -1.664400 4.579100 7.557963 3.578232 4.411500 0.985781 4.442508 -4.601620 -5.374735 2.596516 1.319402 -3.853305 -3.473728 -3.937576 5.515237 -5.053384 9.247559 1.787400 -2.355700 1.184600 -0.627601 -8.505564 2.318148 -80.684045 6.682946 34.260810 11.423357 -16.030574 -1.702753 0.379102 0.386541 -9.874592 13.496705 -9.749708 -2.327500 -7.125000 0.000000 0.000000 -9.901900 19.701400 6.074700 0.495498 9.042204 2.887260 79.626633 -4.668893 28.309502 -19.113619 23.882183 -5.839142 1.470815 2.180148 2.643758 2.795007 -44.226727 -1.074200 7.125000 0.000000 0.000000 57.826500 -68.062500 -36.384000 
9.479511 17.990933 -14.786259 -5.359441 7.774043 2.394591 -2.694644 -4.598398 -2.749700 -3.833838 1.673652 -25.424289 3.738978 13.307778 38.422885 0.784525 -1.689122 8.635907 0.933400 6.154200 17.232500 -0.296015 3.106748 -3.564734 28.903824 0.589047 9.929547 0.740201 -3.190679 5.250562 0.079491 -7.769194 -18.062010 -0.062300 -1.610000 4.429000 7.639405 3.695217 4.332589 0.926932 4.580060 -4.623039 -5.502576 2.664686 1.344624 -3.895564 -3.431415 -3.975246 5.478520 -4.992687 9.297739 1.784800 -2.325200 1.203300 -0.633055 -8.503836 2.316343 -80.720769 7.014825 33.668869 11.437158 -16.045949 -1.705710 0.369453 0.388705 -10.149828 13.596608 -9.603053 -2.313900 -7.125000 0.000000 0.000000 -9.830800 19.842600 5.998300 0.481942 9.037071 2.896593 79.341955 -4.307724 28.300236 -19.396643 24.192049 -5.963192 1.461287 2.183201 2.263497 2.530991 -44.291372 -0.879400 7.125000 0.000000 0.000000 57.714000 -68.177600 -36.429400 
9.496350 17.972699 -14.634211 -5.380249 7.502215 2.531287 -2.788761 -4.631602 -2.759041 -3.703538 1.514293 -25.431118 3.077689 12.504877 35.583477 0.764434 -1.258636 8.848432 0.946400 6.195600 17.353000 -0.248152 3.118451 -3.560640 28.907208 0.516344 10.360053 0.735195 -3.181626 5.235452 0.014372 -7.388176 -18.302407 -0.060900 -1.592200 4.379900 7.693995 3.810600 4.238911 0.867172 4.714793 -4.650560 -5.615298 2.730692 1.362476 -3.926830 -3.386672 -3.981139 5.452914 -4.931410 9.346608 1.783600 -2.294600 1.215400 -0.638917 -8.502884 2.313806 -80.773075 7.346386 33.076656 11.415898 -16.017074 -1.699831 0.363523 0.389791 -10.275335 13.644568 -9.510780 -2.302500 -7.125000 0.000000 0.000000 -9.796500 19.932100 5.956800 0.469711 9.032124 2.906321 79.054642 -3.954366 28.301552 -19.652405 24.468390 -6.073871 1.455631 2.182823 1.899520 2.202877 -44.289130 -0.634400 7.125000 0.000000 0.000000 57.396100 -68.276000 -36.294000 
9.514284 17.952373 -14.479970 -5.391949 7.234523 2.669305 -2.889742 -4.662332 -2.762521 -3.565702 1.338219 -25.357440 2.439235 11.647967 32.670888 0.736851 -0.800978 9.043357 0.969300 6.268000 17.564000 -0.197793 3.130799 -3.557987 28.880898 0.420786 10.796351 0.728811 -3.172038 5.219415 -0.054321 -6.979816 -18.535370 -0.062100 -1.607500 4.422000 7.731710 3.920170 4.136503 0.807848 4.841489 -4.681687 -5.717412 2.792083 1.375007 -3.956261 -3.333672 -3.966771 5.441134 -4.861745 9.385653 1.786400 -2.260000 1.220800 -0.644984 -8.503049 2.310325 -80.847731 7.676096 32.455863 11.367224 -15.954344 -1.686850 0.361751 0.389130 -10.253551 13.622091 -9.476962 -2.290900 -7.125000 0.000000 0.000000 -9.812200 19.967600 5.958700 0.458317 9.026745 2.916363 78.762710 -3.612413 28.316016 -19.893895 24.725056 -6.175116 1.454057 2.177563 1.566393 1.807380 -44.200175 -0.337800 7.125000 0.000000 0.000000 56.824300 -68.346800 -35.928600 
9.533315 17.930054 -14.323936 -5.416522 6.960068 2.808284 -2.995060 -4.688606 -2.761028 -3.396096 1.150927 -25.214663 1.837597 10.746279 29.720841 0.698768 -0.325519 9.139835 0.973200 6.280500 17.600400 -0.147028 3.142192 -3.556059 28.854627 0.312262 11.227882 0.721661 -3.164885 5.208891 -0.124892 -6.555854 -18.761250 -0.064000 -1.632300 4.490500 7.774617 4.022123 4.038869 0.754964 4.959222 -4.715674 -5.810222 2.848318 1.377580 -3.972497 -3.279005 -3.948415 5.404386 -4.785505 9.399177 1.779400 -2.222500 1.216600 -0.650691 -8.502284 2.305015 -80.948621 8.000986 31.813919 11.301232 -15.869711 -1.668958 0.362164 0.386281 -10.115762 13.526644 -9.451417 -2.267500 -7.125000 0.000000 0.000000 -9.880300 20.000300 5.993900 0.447929 9.023228 2.926989 78.462550 -3.275805 28.344878 -20.127162 24.969324 -6.270303 1.456186 2.167891 1.286939 1.371321 -44.044842 -0.011600 7.125000 0.000000 0.000000 56.066900 -68.391600 -35.391300 
